<svg xmlns="http://www.w3.org/2000/svg" width="800" height="800" viewBox="0 0 800 800">
  <defs>
    <linearGradient id="bg" x1="0" y1="0" x2="1" y2="1">
      <stop offset="0%" stop-color="#15171A"/>
      <stop offset="100%" stop-color="#0062FF"/>
    </linearGradient>
  </defs>
  <!-- Background -->
  <rect width="800" height="800" rx="120" fill="url(#bg)"/>
  <!-- Back bookmark (collection of links) -->
  <path d="M 280 170 H 520 A 40 40 0 0 1 560 210 V 580 L 400 640 L 240 580 V 210 A 40 40 0 0 1 280 170 Z"
        fill="#ffffff" opacity="0.3"
        transform="translate(316 349) scale(0.78) translate(-400 -405)"/>
  <!-- Front bookmark -->
  <path d="M 280 170 H 520 A 40 40 0 0 1 560 210 V 580 L 400 640 L 240 580 V 210 A 40 40 0 0 1 280 170 Z"
        fill="#ffffff"/>
</svg>
